<?xml version="1.0" encoding="UTF-8"?>
<svg data-bbox="0 0 285.017 33.839" xmlns="http://www.w3.org/2000/svg" viewBox="0 0 286 34" height="34" width="286" data-type="color">
    <g>
        <path fill="#ffffff" d="M15.6 31.2c8.616 0 15.6-6.984 15.6-15.6S24.216 0 15.6 0 0 6.984 0 15.6s6.984 15.6 15.6 15.6" data-color="1"/>
        <path fill="#1073E5" d="M15.6 30.8a15.2 15.2 0 1 1 0-30.4 7.6 7.6 0 0 1 0 15.2 7.6 7.6 0 0 0 0 15.2" data-color="2"/>
        <path fill="#1073E5" d="M15.6 25.2a2 2 0 1 0 0-4 2 2 0 0 0 0 4" data-color="2"/>
        <path fill="#ffffff" d="M15.6 10a2 2 0 1 0 0-4 2 2 0 0 0 0 4" data-color="1"/>
        <path fill="#ffffff" d="M56.526 2.41 52.33 15.14l4.597 15.46h-7.574l-2.96-12.084V30.6h-7.33V2.41h7.33v10.953L49.649 2.41z" data-color="1"/>
        <path fill="#ffffff" d="M65.25 2.41v3.675h-7.244V2.41zm0 5.085V30.6h-7.244V7.495z" data-color="1"/>
        <path fill="#ffffff" d="m74.948 7.495-.122 2.124q.766-1.27 1.863-1.898 1.114-.644 2.56-.644 1.81 0 2.96.853 1.148.853 1.48 2.16.33 1.288.33 4.317V30.6h-7.034V14.599q0-2.386-.157-2.908t-.87-.522q-.75 0-.94.61-.192.591-.192 3.203V30.6h-7.034V7.495z" data-color="1"/>
        <path fill="#ffffff" d="M102.388 19.457h-9.106v4.997q0 1.567.226 2.02.226.452.87.452.802 0 1.063-.592.279-.61.278-2.333v-3.047h6.669v1.706q0 2.142-.278 3.291-.262 1.15-1.254 2.455a6.2 6.2 0 0 1-2.525 1.968q-1.514.645-3.813.644-2.228 0-3.935-.644-1.706-.645-2.664-1.759a6.5 6.5 0 0 1-1.306-2.472q-.365-1.358-.365-3.935v-6.739q0-3.03.818-4.77.82-1.759 2.681-2.682 1.863-.94 4.284-.94 2.96 0 4.875 1.132 1.932 1.114 2.699 2.977.783 1.846.783 5.206zm-7.052-3.761v-1.69q0-1.793-.191-2.315-.192-.522-.784-.522-.73 0-.905.452-.174.436-.174 2.386v1.689z" data-color="1"/>
        <path fill="#ffffff" d="M112.121 4.413v3.64h1.898v3.656h-1.898V24.07q0 2.28.226 2.542.245.26 1.968.26V30.6h-2.838q-2.403 0-3.43-.192a3.75 3.75 0 0 1-1.811-.922q-.783-.733-.975-1.654-.192-.94-.192-4.388V11.709h-1.514V8.052h1.514V4.413z" data-color="1"/>
        <path fill="#ffffff" d="M122.812 2.41v3.675h-7.243V2.41zm0 5.085V30.6h-7.243V7.495z" data-color="1"/>
        <path fill="#ffffff" d="m140.502 7.495-2.856 9.21 3.709 13.895h-6.773l-2.194-10.064V30.6h-7.034V2.41h7.034v11.84l2.194-6.755z" data-color="1"/>
        <path fill="#ffffff" d="M148.929 2.41h12.414v5.642h-5.084v5.346h4.527v5.362h-4.527V30.6h-7.33z" data-color="1"/>
        <path fill="#ffffff" d="M170.171 2.41V30.6h-7.243V2.41z" data-color="1"/>
        <path fill="#ffffff" d="M188.627 15.609v5.658q0 3.117-.313 4.58-.314 1.444-1.341 2.716-1.027 1.254-2.646 1.863-1.602.592-3.692.592-2.333 0-3.952-.505-1.62-.522-2.525-1.55-.888-1.044-1.271-2.507-.383-1.48-.383-4.422v-5.92q0-3.222.697-5.032.696-1.811 2.507-2.908 1.81-1.097 4.631-1.097 2.368 0 4.057.714 1.707.697 2.629 1.828.923 1.132 1.254 2.333.348 1.202.348 3.657m-7.034-1.741q0-1.776-.192-2.23-.19-.469-.818-.47-.626.001-.836.47-.209.454-.209 2.23v10.429q0 1.637.209 2.142.21.487.819.487.626 0 .818-.452.209-.453.209-1.95z" data-color="1"/>
        <path fill="#ffffff" d="M213.682 7.495 210.879 30.6h-7.644q-.626-4.23-1.445-11.143a89 89 0 0 1-.783 6.128l-.784 5.015h-7.643l-2.978-23.105h6.059q.07.906 1.533 13.215.104-1.253 1.567-13.215h5.833l1.427 13.215q.332-5.781 1.602-13.215z" data-color="1"/>
        <path fill="#ffffff" d="M221.361 2.41h5.484q5.311 0 7.174.488 1.88.488 2.855 1.602t1.219 2.49q.244 1.358.244 5.363v9.872q0 3.795-.366 5.084-.348 1.271-1.236 2.003-.888.713-2.194 1.01-1.305.278-3.935.278h-9.245zm7.33 4.824v18.543q1.584 0 1.95-.627.366-.644.366-3.465V10.734q0-1.916-.122-2.456t-.557-.783q-.435-.261-1.637-.261" data-color="1"/>
        <path fill="#ffffff" d="M256.776 15.609v5.658q0 3.117-.314 4.58-.314 1.444-1.34 2.716-1.027 1.254-2.647 1.863-1.602.592-3.691.592-2.334 0-3.953-.505-1.619-.522-2.524-1.55-.888-1.044-1.271-2.507-.384-1.48-.383-4.422v-5.92q0-3.222.696-5.032t2.507-2.908 4.632-1.097q2.368 0 4.057.714 1.706.697 2.629 1.828t1.253 2.333q.35 1.202.349 3.657m-7.035-1.741q0-1.776-.191-2.23-.191-.469-.818-.47-.627.001-.836.47-.209.454-.209 2.23v10.429q0 1.637.209 2.142.209.487.818.487.627 0 .819-.452.208-.453.208-1.95z" data-color="1"/>
        <path fill="#ffffff" d="M266.561 2.41v3.675h-7.243V2.41zm0 5.085v18.282q0 3.22-.139 4.37a3.8 3.8 0 0 1-.801 1.985q-.661.87-1.794 1.289-1.115.418-3.36.418h-2.716v-3.692q1.254 0 1.41-.278.157-.279.157-3.483V7.495z" data-color="1"/>
        <path fill="#ffffff" d="M285.017 15.609v5.658q0 3.117-.313 4.58-.314 1.444-1.341 2.716-1.027 1.254-2.646 1.863-1.602.592-3.692.592-2.333 0-3.952-.505-1.62-.522-2.525-1.55-.887-1.044-1.271-2.507-.383-1.48-.383-4.422v-5.92q0-3.222.697-5.032.696-1.811 2.507-2.908 1.81-1.097 4.631-1.097 2.368 0 4.057.714 1.707.697 2.629 1.828.923 1.132 1.254 2.333.348 1.202.348 3.657m-7.034-1.741q0-1.776-.192-2.23-.19-.469-.818-.47-.627.001-.836.47-.209.454-.209 2.23v10.429q0 1.637.209 2.142.21.487.819.487.627 0 .818-.452.209-.453.209-1.95z" data-color="1"/>
    </g>
</svg>
